<svg width="497" height="406" viewBox="0 0 497 406" fill="none" xmlns="http://www.w3.org/2000/svg">
<path d="M120.727 110.503L116.996 107.359L120.978 102.684L109.979 93.4192L109.478 98.5388L104.382 97.9545L105.607 86.3243L107.835 83.681L124.876 98.0658L128.552 93.6975L132.283 96.8415L120.727 110.503Z" fill="white"/>
<path d="M144.404 86.4124C141.856 88.6592 139.197 89.5148 136.412 88.9722C133.628 88.4157 130.746 86.3777 127.753 82.851C125.901 80.6808 124.599 78.4967 123.854 76.2847C123.096 74.0588 122.928 71.9651 123.353 69.9966C123.785 68.035 124.843 66.3378 126.527 64.9049C128.887 62.9016 131.449 62.2199 134.213 62.846C136.976 63.4581 139.796 65.4475 142.678 68.8002C144.495 70.9565 145.803 73.1267 146.604 75.3109C147.418 77.4811 147.648 79.5331 147.3 81.4599C146.945 83.3727 145.977 85.0213 144.404 86.4124ZM140.84 82.5172C141.912 81.592 142.204 80.3121 141.703 78.6775C141.202 77.029 139.984 75.0744 138.055 72.8068C134.491 68.6193 131.748 67.3464 129.813 68.995C128.72 69.927 128.414 71.2417 128.894 72.9459C129.361 74.657 130.523 76.6047 132.375 78.7888C134.213 80.9451 135.814 82.3224 137.192 82.9345C138.564 83.5466 139.782 83.4075 140.84 82.5172Z" fill="white"/>
<path d="M165.327 71.4109C162.445 73.2125 159.682 73.6229 157.03 72.6352C154.398 71.6335 151.878 69.1503 149.484 65.1785C148.022 62.73 147.089 60.3581 146.699 58.0557C146.309 55.7394 146.497 53.6526 147.256 51.7954C148.001 49.9243 149.316 48.4218 151.21 47.288C153.869 45.6951 156.507 45.4377 159.146 46.5089C161.777 47.5662 164.228 49.9868 166.497 53.7708C167.959 56.1845 168.906 58.5287 169.337 60.8102C169.783 63.0917 169.671 65.1506 169.003 66.987C168.335 68.8233 167.11 70.298 165.327 71.4109ZM162.432 66.9592C163.636 66.2358 164.13 65.0324 163.907 63.3421C163.698 61.6379 162.828 59.5025 161.29 56.9427C158.464 52.2545 155.958 50.5642 153.772 51.8788C152.546 52.6023 152.031 53.8474 152.212 55.6072C152.4 57.3531 153.229 59.4607 154.691 61.9231C156.152 64.3368 157.51 65.9575 158.756 66.7922C160.016 67.6269 161.241 67.6826 162.432 66.9592Z" fill="white"/>
<path d="M179.479 47.2274C177.586 47.916 175.873 47.9439 174.328 47.3109C172.769 46.6848 171.669 45.4884 171.014 43.7216C170.569 42.4974 170.478 41.301 170.736 40.1324C171 38.9499 171.536 37.8996 172.351 36.9884C173.172 36.0632 174.237 35.3607 175.553 34.8738C177.481 34.1712 179.208 34.1365 180.732 34.7625C182.271 35.3955 183.364 36.6127 184.018 38.4074C184.464 39.6316 184.561 40.828 184.324 41.9966C184.081 43.1652 183.545 44.2155 182.709 45.1406C181.874 46.0519 180.795 46.7474 179.479 47.2274ZM180.51 62.4468L189.42 30.2551L194.182 28.5022L185.299 60.694L180.51 62.4468ZM178.421 43.7773C179.257 43.4851 179.827 42.9704 180.148 42.247C180.461 41.5236 180.461 40.7306 180.148 39.8542C179.869 39.0751 179.424 38.5465 178.811 38.2682C178.198 37.99 177.509 37.99 176.75 38.2682C175.859 38.5882 175.261 39.1029 174.941 39.8264C174.606 40.5498 174.599 41.3566 174.913 42.247C175.212 43.0261 175.664 43.5547 176.277 43.8329C176.89 44.1112 177.6 44.0973 178.421 43.7773ZM199.138 55.964C197.224 56.6735 195.497 56.7082 193.959 56.0753C192.413 55.4492 191.32 54.2389 190.673 52.4582C190.228 51.234 190.116 50.0376 190.339 48.869C190.576 47.7004 191.105 46.664 191.926 45.7528C192.761 44.8485 193.847 44.1529 195.184 43.666C197.091 42.9635 198.811 42.9287 200.335 43.5547C201.874 44.1877 202.967 45.3911 203.621 47.1718C204.067 48.396 204.157 49.5924 203.9 50.761C203.656 51.9157 203.127 52.9521 202.312 53.8772C201.491 54.7884 200.433 55.484 199.138 55.964ZM197.996 52.5695C198.832 52.2565 199.403 51.7348 199.723 51.0114C200.036 50.288 200.029 49.4672 199.695 48.5351C199.416 47.7769 198.971 47.2761 198.358 47.0326C197.746 46.7753 197.05 46.7822 196.27 47.0605C195.393 47.3943 194.808 47.923 194.516 48.6464C194.216 49.3559 194.223 50.1419 194.544 51.0114C194.822 51.7904 195.254 52.3191 195.852 52.5973C196.465 52.8756 197.175 52.8686 197.996 52.5695Z" fill="white"/>
<path d="M225.44 49.7467L223.574 22.6189L233.738 21.9233C237.024 21.6868 239.655 22.1389 241.646 23.2866C243.63 24.4413 244.716 26.2568 244.904 28.74C244.973 29.9851 244.765 31.1328 244.263 32.1901C243.776 33.2335 243.066 34.0752 242.119 34.7221C243.247 35.1672 244.187 35.8767 244.932 36.8367C245.69 37.7827 246.115 38.9512 246.213 40.3424C246.324 41.9005 245.997 43.3126 245.238 44.5716C244.472 45.8167 243.345 46.8253 241.841 47.6043C240.337 48.3834 238.513 48.8494 236.383 48.9955L225.44 49.7467ZM234.211 26.9871L230.034 27.2932L230.424 33.1361L234.239 32.8579C235.833 32.7466 236.982 32.4336 237.692 31.9119C238.416 31.3763 238.75 30.5903 238.694 29.5469C238.618 28.6009 238.221 27.9192 237.497 27.488C236.787 27.0637 235.694 26.8967 234.211 26.9871ZM231.176 44.2377L235.938 43.9038C237.274 43.8134 238.291 43.5004 239.001 42.9578C239.725 42.4013 240.045 41.5945 239.975 40.5372C239.899 39.5008 239.516 38.7773 238.834 38.3669C238.144 37.9635 237.051 37.8105 235.548 37.9218L230.786 38.2557L231.176 44.2377Z" fill="white"/>
<path d="M273.718 23.5108L279.872 24.2342L278.201 38.8416C277.902 41.4013 277.15 43.5924 275.946 45.4079C274.755 47.2303 273.203 48.5519 271.296 49.3867C269.381 50.2214 267.23 50.4996 264.835 50.2214C260.826 49.7344 257.902 48.385 256.064 46.1591C254.24 43.9193 253.565 40.8379 254.032 36.9217L255.897 21.3684L262.107 22.1197L260.297 37.1722C260.018 39.5858 260.332 41.3874 261.243 42.5699C262.148 43.7385 263.541 44.4341 265.42 44.6567C267.272 44.8792 268.776 44.448 269.931 43.349C271.08 42.236 271.804 40.3718 272.103 37.7564L273.718 23.5108Z" fill="white"/>
<path d="M280.738 51.9033L300.313 29.6445L305.297 31.2583L307.747 60.6121L301.677 58.6644L301.315 52.7102L290.65 49.2601L286.78 53.851L280.738 51.9033ZM294.298 44.9753L300.953 47.1177L300.368 37.7133L294.298 44.9753Z" fill="white"/>
<path d="M343.015 48.5646L339.729 53.0164L332.461 49.1767L322.326 68.3749L316.757 65.4256L326.892 46.2274L319.291 42.2209L321.852 37.3796L343.015 48.5646Z" fill="white"/>
<path d="M331.285 73.0086L357.292 58.763L361.414 61.9627L353.7 90.4261L348.688 86.503L350.387 80.7714L341.532 73.899L336.297 76.9039L331.285 73.0086ZM346.405 71.0888L351.918 75.3736L354.619 66.3866L346.405 71.0888Z" fill="white"/>
<path d="M388.815 88.9307L392.769 93.4659L372.275 111.356L368.628 107.183L373.417 86.9831L360.692 98.0846L356.738 93.5494L377.232 75.6589L380.879 79.8602L376.09 100.06L388.815 88.9307Z" fill="white"/>
<path d="M84.9107 289.796C83.2539 286.805 82.6065 284.12 82.9615 281.727C83.3096 279.355 84.6462 277.386 86.9712 275.828L91.2872 281.532C90.4658 282.033 89.9855 282.77 89.8393 283.758C89.707 284.76 89.9576 285.824 90.5911 286.958C91.7049 288.996 92.7909 289.719 93.849 289.128C94.3641 288.85 94.6147 288.349 94.6008 287.625C94.6008 286.902 94.392 285.796 93.9882 284.314C93.132 281.198 92.9023 278.687 93.2921 276.774C93.6959 274.847 94.921 273.338 96.9677 272.239C98.527 271.404 100.114 271.064 101.729 271.21C103.344 271.342 104.876 271.954 106.324 273.046C107.786 274.124 109.059 275.634 110.138 277.581C111.454 279.974 111.934 282.283 111.586 284.509C111.231 286.735 110.069 288.53 108.106 289.907L103.873 284.565C104.465 284.099 104.806 283.466 104.904 282.673C104.994 281.873 104.827 281.073 104.402 280.28C103.971 279.522 103.483 278.993 102.927 278.694C102.37 278.381 101.827 278.374 101.312 278.666C100.824 278.931 100.539 279.383 100.448 280.03C100.372 280.697 100.532 281.741 100.922 283.174C101.479 285.247 101.813 287.069 101.924 288.627C102.035 290.185 101.813 291.528 101.256 292.661C100.713 293.788 99.7243 294.755 98.2764 295.555C96.731 296.404 95.1438 296.738 93.5149 296.557C91.879 296.369 90.3127 295.701 88.809 294.553C87.3193 293.399 86.0245 291.813 84.9107 289.796Z" fill="white"/>
<path d="M93.565 304.416L122.301 296.765L126.255 301.718L112.305 327.76L107.46 321.723L110.077 317.187L103.478 308.979L98.4101 310.454L93.565 304.416ZM110.022 307.032L113.419 311.261L116.927 305.029L110.022 307.032Z" fill="white"/>
<path d="M148.817 323.713L154.553 328.582L144.946 339.99C143.345 341.916 141.528 343.273 139.489 344.052C137.442 344.831 135.347 345.005 133.196 344.58C131.058 344.17 129.047 343.168 127.153 341.575C124.035 338.918 122.287 336.101 121.918 333.117C121.563 330.133 122.684 327.107 125.288 324.047L135.312 312.25L141.187 317.23L131.413 328.721C130.056 330.321 129.45 331.761 129.604 333.061C129.75 334.355 130.397 335.489 131.553 336.456C132.757 337.472 134.01 337.903 135.312 337.736C136.607 337.569 137.964 336.63 139.377 334.926L148.817 323.713Z" fill="white"/>
<path d="M150.838 358.632C148.777 357.407 147.336 355.912 146.522 354.152C145.7 352.392 145.547 350.5 146.048 348.476L152.815 349.199C152.627 350.09 152.654 350.827 152.898 351.397C153.135 351.975 153.525 352.42 154.068 352.733C154.68 353.088 155.272 353.178 155.85 353.011C156.421 352.844 156.915 352.427 157.326 351.759L166.681 335.928L173.281 339.823L164.426 354.82C162.811 357.546 160.792 359.244 158.384 359.911C155.968 360.593 153.455 360.169 150.838 358.632Z" fill="white"/>
<path d="M165.496 366.805L186.547 345.854L192.478 348.163L193.369 377.684L186.157 374.874V369.643L176.356 365.803L172.708 369.615L165.496 366.805ZM181.034 360.851L186.074 362.826L186.046 355.676L181.034 360.851Z" fill="white"/>
<path d="M222.785 355.939L230.025 357.275L225.096 384.013L218.385 382.761L210.672 366.485L208.027 380.869L200.815 379.534L205.743 352.795L212.426 354.02L220.139 370.269L222.785 355.939Z" fill="white"/>
<path d="M232.524 384.893L244.303 357.626L250.652 357.571L262.458 384.671L254.717 384.726L252.768 379.885L242.242 379.968L240.265 384.838L232.524 384.893ZM244.776 373.625L250.178 373.569L247.477 366.947L244.776 373.625Z" fill="white"/>
<path d="M294.436 350.052L301.648 347.965L305.88 362.239C306.604 364.632 306.722 366.906 306.242 369.056C305.776 371.191 304.78 373.034 303.263 374.592C301.738 376.137 299.782 377.25 297.387 377.931C293.447 379.065 290.134 378.961 287.446 377.625C284.752 376.276 282.852 373.674 281.738 369.835L277.422 354.949L284.801 352.835L289.006 367.331C289.577 369.334 290.454 370.635 291.623 371.226C292.793 371.803 294.101 371.88 295.549 371.448C297.053 371.024 298.09 370.217 298.668 369.028C299.26 367.845 299.239 366.204 298.612 364.103L294.436 350.052Z" fill="white"/>
<path d="M327.333 335.508L329.31 341.963L322.182 345.496L331.343 363.888L324.437 367.31L315.276 348.919L307.674 352.703L304.723 346.748L327.333 335.508Z" fill="white"/>
<path d="M342.709 358.071L336.277 329.079L341.373 325.323L366.851 340.348L360.614 344.939L356.158 342.156L347.666 348.389L348.946 353.48L342.709 358.071ZM346.023 341.767L350.394 338.567L344.296 334.783L346.023 341.767Z" fill="white"/>
<path d="M372.835 335.025L353.037 316.411L357.158 311.736L376.51 316.661L369.159 298.214L373.308 293.54L394.053 311.124L389.124 316.661L380.464 309.288L385.142 321.196L381.578 325.203L369.354 322.087L377.513 329.794L372.835 335.025Z" fill="white"/>
<path d="M398.55 304.651L380.757 280.862L383.876 275.325L413.28 278.609L409.465 285.342L404.286 284.619L399.107 293.772L402.365 297.918L398.55 304.651ZM394.875 288.403L397.548 283.7L390.447 282.754L394.875 288.403Z" fill="white"/>
<path d="M0 228.848V177.013H14.6187V216.133H36.2544L35.3634 228.848H0Z" fill="white"/>
<path d="M83.3089 189.506H59.8354V196.573H81.3876V209.066H59.8354V216.355H83.8936L83.0026 228.848H45.4394V177.013H83.3089V189.506Z" fill="white"/>
<path d="M94.187 228.848L95.7185 177.013H107.636L125.012 210.819L142.109 177.013H154.026L155.112 228.848H141.023L140.577 207.174L129.467 228.848H119.248L108.193 207.535L107.553 228.848H94.187Z" fill="white"/>
<path d="M161.979 228.848L184.84 177.013H196.981L219.034 228.848H204.276L200.628 219.583H180.524L176.737 228.848H161.979ZM185.509 207.535H195.811L190.771 194.82L185.509 207.535Z" fill="white"/>
<path d="M259.061 177.013H273.095V228.848H260.091L239.987 200.969V228.848H225.953V177.013H238.985L259.061 204.836V177.013Z" fill="white"/>
<path d="M313.35 199.439H337.158V228.848H325.63L324.655 224.396C323.151 226.142 321.154 227.457 318.668 228.347C316.176 229.217 313.524 229.655 310.705 229.655C305.393 229.655 300.778 228.639 296.866 226.594C292.946 224.535 289.911 221.586 287.76 217.746C285.623 213.907 284.558 209.337 284.558 204.029C284.558 198.52 285.783 193.693 288.234 189.533C290.698 185.381 294.165 182.132 298.62 179.795C303.075 177.458 308.268 176.289 314.213 176.289C319.726 176.289 324.279 177.173 327.885 178.933C331.484 180.679 334.484 183.35 336.879 186.946L325.769 194.959C324.634 192.977 323.012 191.551 320.896 190.674C318.78 189.784 316.58 189.339 314.297 189.339C309.8 189.339 306.256 190.66 303.66 193.29C301.056 195.926 299.761 199.383 299.761 203.668C299.761 207.751 300.889 210.944 303.159 213.239C305.421 215.521 308.547 216.661 312.542 216.661C314.826 216.661 316.872 216.188 318.696 215.242C320.534 214.282 321.815 212.926 322.539 211.18H313.35V199.439Z" fill="white"/>
<path d="M391.943 177.013L389.826 189.728H374.623V228.848H360.032V189.728H343.798V177.013H391.943Z" fill="white"/>
<path d="M432.642 177.013H446.955L447.094 205.421C447.15 210.192 446.175 214.401 444.17 218.053C442.179 221.691 439.388 224.535 435.789 226.594C432.183 228.639 427.992 229.655 423.203 229.655C415.42 229.655 409.426 227.707 405.215 223.812C400.996 219.917 398.894 214.15 398.894 206.506V177.013H413.485V205.782C413.485 209.719 414.39 212.537 416.214 214.241C418.052 215.952 420.404 216.801 423.286 216.801C426.308 216.801 428.661 215.882 430.331 214.046C432.016 212.196 432.837 209.142 432.782 204.892L432.642 177.013Z" fill="white"/>
<path d="M460.746 228.848V177.013H475.364V216.133H497L496.109 228.848H460.746Z" fill="white"/>
<path fill-rule="evenodd" clip-rule="evenodd" d="M465.126 153.586H30.7411V145.572H465.126V153.586ZM465.126 252.414H30.7411V260.428H465.126V252.414Z" fill="white"/>
<path fill-rule="evenodd" clip-rule="evenodd" d="M247.934 335.217C303.387 335.217 350.832 300.959 370.23 252.468H378.829C359.026 305.48 307.892 343.23 247.934 343.23C187.955 343.23 136.807 305.454 117.018 252.414H125.616C145 300.934 192.46 335.217 247.934 335.217ZM378.342 153.586C358.199 101.248 307.407 64.1053 247.934 64.1053C188.46 64.1053 137.668 101.248 117.525 153.586H126.158C145.874 105.774 192.97 72.1184 247.934 72.1184C302.897 72.1184 349.993 105.774 369.709 153.586H378.342Z" fill="white"/>
<path fill-rule="evenodd" clip-rule="evenodd" d="M247.934 397.987C338.948 397.987 415.431 336.161 437.398 252.414H445.679C423.522 340.647 343.391 406 247.934 406C152.476 406 72.3451 340.647 50.1879 252.414H58.4695C80.4363 336.161 156.919 397.987 247.934 397.987ZM445.679 153.586C423.522 65.3534 343.391 0 247.934 0C152.476 0 72.3451 65.3534 50.1879 153.586H58.4695C80.4363 69.8389 156.919 8.01316 247.934 8.01316C338.948 8.01316 415.431 69.8389 437.398 153.586H445.679Z" fill="white"/>
</svg>
